<mxfile host="drawio-plugin" modified="2022-02-01T09:54:42.697Z" agent="5.0 (Macintosh; Intel Mac OS X 10_15_7) AppleWebKit/537.36 (KHTML, like Gecko) Chrome/89.0.4389.114 Safari/537.36" etag="ui80NskR5RUnTaF_Sr2R" version="15.5.4" type="embed"><diagram id="23iRSUPoRavnBvh4doch" name="Page-1"><mxGraphModel dx="1384" dy="813" grid="1" gridSize="10" guides="1" tooltips="1" connect="1" arrows="1" fold="1" page="1" pageScale="1" pageWidth="827" pageHeight="1169" math="0" shadow="0"><root><mxCell id="0"/><mxCell id="1" parent="0"/><mxCell id="2" value="IMDB Service" style="ellipse;shape=cloud;whiteSpace=wrap;html=1;" vertex="1" parent="1"><mxGeometry x="950" y="130" width="210" height="110" as="geometry"/></mxCell><mxCell id="3" value="ExhangeRate Service" style="ellipse;shape=cloud;whiteSpace=wrap;html=1;" vertex="1" parent="1"><mxGeometry x="955" y="570" width="200" height="115" as="geometry"/></mxCell><mxCell id="4" value="MYSQL" style="shape=datastore;whiteSpace=wrap;html=1;" vertex="1" parent="1"><mxGeometry x="1015" y="320" width="80" height="100" as="geometry"/></mxCell><mxCell id="6" value="MovieResource" style="swimlane;" vertex="1" parent="1"><mxGeometry x="20" y="210" width="200" height="200" as="geometry"/></mxCell><mxCell id="7" value="ExhangeRateResource" style="swimlane;" vertex="1" parent="1"><mxGeometry x="20" y="480" width="200" height="200" as="geometry"/></mxCell><mxCell id="9" value="MovieProxy" style="label;whiteSpace=wrap;html=1;image=img/clipart/Gear_128x128.png" vertex="1" parent="1"><mxGeometry x="700" y="60" width="140" height="60" as="geometry"/></mxCell><mxCell id="10" value="ExchangeRateProxy" style="label;whiteSpace=wrap;html=1;image=img/clipart/Gear_128x128.png" vertex="1" parent="1"><mxGeometry x="720" y="680" width="190" height="60" as="geometry"/></mxCell><mxCell id="12" value="" style="edgeStyle=elbowEdgeStyle;elbow=horizontal;endArrow=classic;html=1;rounded=0;entryX=-0.029;entryY=0.633;entryDx=0;entryDy=0;entryPerimeter=0;exitX=1;exitY=0.25;exitDx=0;exitDy=0;" edge="1" parent="1" source="6" target="9"><mxGeometry width="50" height="50" relative="1" as="geometry"><mxPoint x="220" y="250" as="sourcePoint"/><mxPoint x="260" y="160" as="targetPoint"/><Array as="points"><mxPoint x="245" y="220"/></Array></mxGeometry></mxCell><mxCell id="13" value="" style="edgeStyle=elbowEdgeStyle;elbow=horizontal;endArrow=classic;html=1;rounded=0;exitX=1;exitY=0.75;exitDx=0;exitDy=0;entryX=0.07;entryY=0.4;entryDx=0;entryDy=0;entryPerimeter=0;" edge="1" parent="1" source="9" target="2"><mxGeometry width="50" height="50" relative="1" as="geometry"><mxPoint x="450" y="240" as="sourcePoint"/><mxPoint x="500" y="190" as="targetPoint"/><Array as="points"><mxPoint x="880" y="100"/><mxPoint x="475" y="220"/><mxPoint x="475" y="210"/><mxPoint x="475" y="220"/></Array></mxGeometry></mxCell><mxCell id="14" value="" style="edgeStyle=elbowEdgeStyle;elbow=horizontal;endArrow=classic;html=1;rounded=0;entryX=0.105;entryY=0.574;entryDx=0;entryDy=0;entryPerimeter=0;exitX=1;exitY=0.25;exitDx=0;exitDy=0;" edge="1" parent="1" source="10" target="3"><mxGeometry width="50" height="50" relative="1" as="geometry"><mxPoint x="515" y="645" as="sourcePoint"/><mxPoint x="565" y="595" as="targetPoint"/></mxGeometry></mxCell><mxCell id="15" value="" style="edgeStyle=elbowEdgeStyle;elbow=horizontal;endArrow=classic;html=1;rounded=0;entryX=-0.026;entryY=0.4;entryDx=0;entryDy=0;entryPerimeter=0;" edge="1" parent="1" target="10"><mxGeometry width="50" height="50" relative="1" as="geometry"><mxPoint x="220" y="640" as="sourcePoint"/><mxPoint x="320" y="650" as="targetPoint"/></mxGeometry></mxCell></root></mxGraphModel></diagram></mxfile>